<svg viewBox="0 0 512 512" fill="none" xmlns="http://www.w3.org/2000/svg">
  <path fill="#fff" d="M0 0h512v512H0z"/>
  <path d="m462.905 151.303 39.344 68.204.072-.072c12.905 22.393 12.905 50.026 0 72.418L411.263 449.68c-13.407 23.254-38.215 37.608-65.03 37.608H175.866a3 3 0 0 1-3-3v-65.915a3 3 0 0 1 3-3h115.876c55.566 0 95.861-37.321 95.861-88.782 0-33.805-18.068-65.456-47.178-82.681-14.698-8.685-31.547-13.278-48.683-13.278h-94.791c-16.569 0-30-13.432-30-30V176.3c0-16.569 13.431-30 30-30h257.292a10 10 0 0 1 8.662 5.003Z" fill="#000"/>
  <path d="M213.303 280.8h61.408a40 40 0 0 1 28.918 12.364l9.087 9.508c11.26 11.782 11.054 30.399-.465 41.929l-8.72 8.729a39.995 39.995 0 0 1-28.298 11.73H57.686a10 10 0 0 1-8.662-5.003L9.679 291.853c-12.905-22.393-12.905-50.025 0-72.418l91.058-157.827C114.144 38.354 138.952 24 165.767 24H329.968a3 3 0 0 1 3 3v65.987a3 3 0 0 1-3 3H213.303c-55.566 0-95.861 35.958-95.861 88.854s43.019 95.959 95.861 95.959Z" fill="#FA8B16"/>
</svg>
