<svg viewBox="0 0 510 194" fill="none" xmlns="http://www.w3.org/2000/svg">
  <path d="M471.483 157.378h-4.29v-2.703h12.035v2.703h-4.329v21.946h-3.416v-21.946ZM458.69 179.563a22.59 22.59 0 0 1-3.178-.279c-.953-.159-1.721-.463-2.303-.914-.556-.477-.834-1.14-.834-1.988v-5.407l3.415-.397v4.413c0 .583.186 1.033.556 1.351.397.318 1.112.477 2.145.477.688 0 1.218-.079 1.589-.238.37-.159.622-.398.754-.716.133-.344.199-.768.199-1.272v-3.061c0-.822-.199-1.511-.596-2.068-.371-.556-.993-.967-1.867-1.232l-2.899-.835c-1.165-.371-2.012-.835-2.542-1.392-.503-.583-.754-1.497-.754-2.743v-4.85c0-1.14.278-1.988.834-2.545.556-.556 1.297-.927 2.224-1.113.953-.185 2.025-.278 3.217-.278 1.112 0 2.105.093 2.979.278.873.186 1.562.517 2.065.994.503.451.755 1.087.755 1.908v5.407l-3.416.517v-4.294c0-.848-.172-1.418-.516-1.709-.345-.292-1.02-.437-2.026-.437-.98 0-1.681.185-2.105.556-.397.345-.596 1.021-.596 2.028v2.703c0 .689.172 1.286.517 1.789.37.504.9.862 1.588 1.074l3.098.954c1.245.371 2.132.875 2.661 1.511.53.609.795 1.524.795 2.743v5.009c0 1.14-.252 2.002-.755 2.585-.477.556-1.152.941-2.026 1.153-.847.185-1.84.291-2.978.318ZM442.615 179.523c-1.138 0-2.171-.119-3.097-.358-.901-.238-1.616-.623-2.145-1.153-.53-.556-.795-1.299-.795-2.226v-21.111h3.416v19.998c0 .371.066.728.199 1.073.159.318.423.583.794.795.397.186.94.278 1.628.278.715 0 1.258-.092 1.629-.278.397-.212.662-.477.794-.795.133-.345.199-.702.199-1.073v-19.998h3.415v21.111c0 .927-.264 1.67-.794 2.226-.53.53-1.258.915-2.184 1.153-.901.239-1.92.358-3.059.358ZM420.195 154.675h8.46c1.139 0 1.973.145 2.502.437.556.265.914.689 1.072 1.272.186.557.278 1.259.278 2.107v4.89c0 .955-.079 1.856-.238 2.704a3.338 3.338 0 0 1-1.231 2.028c-.662.503-1.748.755-3.257.755h-4.17v10.456h-3.416v-24.649ZM430.442 180l-4.488-11.371 2.344-.119.953.278.159.239 4.21 9.741-3.178 1.232Zm-3.733-13.836c.794 0 1.39-.212 1.787-.636.397-.424.596-1.153.596-2.186v-3.34c0-1.06-.146-1.763-.437-2.107-.291-.345-.834-.517-1.628-.517h-3.416v8.786h3.098ZM410.305 179.602c-2.038 0-3.561-.384-4.567-1.153-.98-.768-1.469-1.855-1.469-3.26v-16.062c0-1.643.463-2.836 1.39-3.578.953-.768 2.462-1.153 4.527-1.153 2.066 0 3.601.371 4.607 1.113 1.007.743 1.51 1.962 1.51 3.658v5.288l-3.376.437v-4.89c0-.901-.172-1.59-.517-2.067-.344-.504-1.059-.756-2.144-.756-1.033 0-1.721.265-2.065.795-.318.504-.477 1.167-.477 1.988v14.432c0 .689.185 1.259.556 1.71.371.45 1.033.676 1.986.676.979 0 1.668-.226 2.065-.676.397-.451.596-1.021.596-1.71v-4.612l3.376-.397v5.804c0 1.405-.517 2.492-1.549 3.26-1.033.769-2.516 1.153-4.449 1.153ZM379.927 179.324l5.163-24.649h4.091l5.083 24.649h-3.535l-1.112-5.566.596.557h-6.315l.517-.557-1.033 5.566h-3.455Zm4.607-7.355-.318-.398h5.799l-.477.398-2.145-12.762-.079-.557h-.437l-.079.557-2.264 12.762ZM362.555 179.324v-9.144l-5.322-15.505h3.138l3.892 11.37.039.716h.04l.04-.716 3.733-11.37h3.138l-5.362 15.505v9.144h-3.336ZM349.05 179.523c-1.35 0-2.489-.133-3.416-.398-.9-.291-1.588-.742-2.065-1.351-.45-.61-.675-1.405-.675-2.386V158.77c0-1.67.516-2.797 1.549-3.38 1.032-.609 2.555-.914 4.567-.914 1.933 0 3.416.305 4.448.914 1.033.61 1.549 1.75 1.549 3.419v3.857l-3.415.199v-3.419c0-.902-.212-1.485-.636-1.75-.397-.291-1.032-.437-1.906-.437-.874 0-1.549.146-2.026.437-.476.265-.715.835-.715 1.71v15.465c0 .53.106.928.318 1.193.238.239.556.411.953.517a8.35 8.35 0 0 0 1.51.119c.556 0 1.019-.04 1.39-.119.397-.106.701-.278.913-.517.212-.265.318-.663.318-1.193v-5.923h-3.257l.238-2.863h6.315v9.303c0 .981-.238 1.776-.715 2.386-.45.609-1.125 1.06-2.025 1.351-.874.265-1.946.398-3.217.398ZM327.91 154.675h11.677v2.703h-8.261v6.958h7.506l-.437 2.663h-7.069v9.661h8.261v2.664H327.91v-24.649ZM316.988 157.378h-4.29v-2.703h12.035v2.703h-4.33v21.946h-3.415v-21.946ZM299.141 179.324l5.163-24.649h4.091l5.083 24.649h-3.534l-1.112-5.566.595.557h-6.315l.517-.557-1.033 5.566h-3.455Zm4.607-7.355-.318-.398h5.799l-.477.398-2.145-12.762-.079-.557h-.437l-.079.557-2.264 12.762ZM283.91 154.675h8.459c1.139 0 1.973.145 2.502.437.556.265.914.689 1.073 1.272.185.557.278 1.259.278 2.107v4.89c0 .955-.08 1.856-.239 2.704a3.333 3.333 0 0 1-1.231 2.028c-.662.503-1.747.755-3.257.755h-4.17v10.456h-3.415v-24.649ZM294.156 180l-4.488-11.371 2.344-.119.953.278.159.239 4.21 9.741-3.178 1.232Zm-3.733-13.836c.794 0 1.39-.212 1.787-.636.398-.424.596-1.153.596-2.186v-3.34c0-1.06-.146-1.763-.437-2.107-.291-.345-.834-.517-1.628-.517h-3.416v8.786h3.098ZM272.987 157.378h-4.289v-2.703h12.034v2.703h-4.329v21.946h-3.416v-21.946ZM260.195 179.563a22.575 22.575 0 0 1-3.177-.279c-.953-.159-1.721-.463-2.304-.914-.556-.477-.834-1.14-.834-1.988v-5.407l3.416-.397v4.413c0 .583.185 1.033.556 1.351.397.318 1.112.477 2.145.477.688 0 1.218-.079 1.588-.238.371-.159.623-.398.755-.716.132-.344.198-.768.198-1.272v-3.061c0-.822-.198-1.511-.595-2.068-.371-.556-.993-.967-1.867-1.232l-2.899-.835c-1.165-.371-2.013-.835-2.542-1.392-.503-.583-.755-1.497-.755-2.743v-4.85c0-1.14.278-1.988.834-2.545.556-.556 1.298-.927 2.224-1.113.954-.185 2.026-.278 3.217-.278 1.113 0 2.105.093 2.979.278.874.186 1.562.517 2.066.994.503.451.754 1.087.754 1.908v5.407l-3.416.517v-4.294c0-.848-.172-1.418-.516-1.709-.344-.292-1.019-.437-2.025-.437-.98 0-1.682.185-2.105.556-.398.345-.596 1.021-.596 2.028v2.703c0 .689.172 1.286.516 1.789.371.504.9.862 1.589 1.074l3.098.954c1.244.371 2.131.875 2.661 1.511.529.609.794 1.524.794 2.743v5.009c0 1.14-.251 2.002-.754 2.585-.477.556-1.152.941-2.026 1.153-.847.185-1.84.291-2.979.318ZM446.063 136.423c-11.022 0-19.123-1.994-24.302-5.982-5.047-4.121-7.57-9.771-7.57-16.949V34.926c0-8.907 2.457-15.288 7.371-19.143C426.475 11.928 434.443 10 445.466 10c10.624 0 18.592 1.928 23.904 5.783 5.445 3.855 8.101 10.302 7.968 19.342v26.322l-21.314 2.592v-23.73c0-4.12-.664-7.244-1.992-9.371-1.196-2.26-3.984-3.39-8.367-3.39-4.25 0-6.972 1.196-8.167 3.589-1.063 2.393-1.594 5.384-1.594 8.973v68.397c0 2.791.664 5.184 1.992 7.178 1.328 1.994 3.918 2.991 7.769 2.991 4.117 0 6.839-.997 8.167-2.991 1.461-1.994 2.192-4.453 2.192-7.378V86.173l21.314-2.393v29.712c0 7.178-2.722 12.828-8.167 16.949-5.312 3.988-13.015 5.982-23.108 5.982ZM328.391 135.027l25.697-123.632h23.904l25.498 123.632h-22.51l-5.179-26.72 3.586 3.39h-27.49l2.988-3.39-4.582 26.72h-21.912Zm27.291-38.086-1.992-2.393h24.502l-2.789 2.392-8.566-56.431-.199-3.79h-1.594l-.199 3.79-9.163 56.431ZM286.948 136.423c-5.843 0-11.355-.399-16.534-1.197-5.046-.797-9.097-2.326-12.151-4.586-2.922-2.393-4.383-5.783-4.383-10.17V92.554l21.514-2.393v21.336c0 2.393.664 4.321 1.992 5.783 1.461 1.329 4.25 1.994 8.367 1.994 2.656 0 4.714-.332 6.175-.997 1.461-.798 2.457-1.861 2.988-3.191.531-1.329.797-2.991.797-4.985v-13.36c0-3.59-.863-6.78-2.59-9.571-1.594-2.792-4.582-4.853-8.964-6.182L270.414 76.8c-5.843-1.86-10.093-4.254-12.749-7.178-2.523-2.925-3.785-7.511-3.785-13.76V29.94c0-5.85 1.461-10.17 4.383-12.961 2.921-2.792 6.905-4.587 11.952-5.384 5.046-.93 10.558-1.396 16.534-1.396 5.71 0 10.823.465 15.338 1.396 4.648.93 8.3 2.592 10.956 4.985 2.789 2.26 4.184 5.45 4.184 9.572v27.916l-21.514 2.991V36.92c0-4.12-.731-6.78-2.192-7.976-1.328-1.33-3.851-1.994-7.569-1.994-3.851 0-6.574.798-8.167 2.393-1.594 1.462-2.391 4.453-2.391 8.973v11.566c0 3.057.664 5.916 1.992 8.574 1.461 2.526 3.785 4.32 6.972 5.384l15.339 4.786c6.241 1.994 10.69 4.52 13.346 7.577 2.789 2.925 4.184 7.511 4.184 13.76v26.121c0 5.717-1.328 10.037-3.985 12.962-2.656 2.924-6.308 4.919-10.956 5.982-4.515.931-9.628 1.396-15.338 1.396ZM195.517 56.216l14.798 25.652.03-.03a30.387 30.387 0 0 1 0 30.324l-38.13 66.09C166.6 187.989 156.212 194 144.983 194H75.387a3 3 0 0 1-3-3v-24.114a3 3 0 0 1 3-3h46.779c23.268 0 40.141-15.628 40.141-37.177 0-14.156-7.566-27.41-19.755-34.623a40.116 40.116 0 0 0-20.386-5.56h-34.6c-9.751 0-17.656-7.905-17.656-17.657 0-9.751 7.905-17.657 17.657-17.657h99.288a10 10 0 0 1 8.662 5.004Z" fill="#000"/>
  <path d="M89.32 107.534h23.685c5.87 0 11.53 2.448 15.586 6.692 5.983 6.26 5.951 16.233-.169 22.359a21.257 21.257 0 0 1-15.036 6.233H27.513a10 10 0 0 1-8.662-5.004L4.053 112.162a30.386 30.386 0 0 1 0-30.324l38.13-66.09C47.797 6.011 58.185 0 69.414 0h67.015a3 3 0 0 1 3 3v24.144a3 3 0 0 1-3 3h-47.11c-23.267 0-40.14 15.058-40.14 37.207 0 22.15 18.013 40.183 40.14 40.183Z" fill="#FA8B16"/>
</svg>
